<svg xmlns="http://www.w3.org/2000/svg" width="1600" height="900" viewBox="0 0 1600 900">
  <rect width="1600" height="900" fill="white"/>
  <g transform="translate(200,430)" fill="none" stroke="#111" stroke-width="16" stroke-linecap="round" stroke-linejoin="round">
    <path d="M0 140h1200" />
    <path d="M140 90c0-80 60-130 140-130h260c40 0 70 15 95 40l60 55h140c40 0 70 30 70 70v20c0 40-30 70-70 70H210c-40 0-70-30-70-70v-55z" fill="white"/>
    <circle cx="330" cy="160" r="48" fill="#111"/>
    <circle cx="940" cy="160" r="48" fill="#111"/>
    <rect x="360" y="-10" width="170" height="80" rx="16" ry="16"/>
    <rect x="560" y="-10" width="150" height="80" rx="16" ry="16"/>
    <path d="M620 90h100"/>
  </g>
  <text x="200" y="170" font-family="system-ui,-apple-system,Segoe UI,Roboto,Helvetica,Arial" font-size="72" font-weight="800" fill="#111">KID CAR ZONE</text>
  <text x="200" y="240" font-family="system-ui,-apple-system,Segoe UI,Roboto,Helvetica,Arial" font-size="28" fill="#111">Minimal • Safe • Fun</text>
</svg>
